<svg width="100%" height="100%" viewBox="0 0 32 32" version="1.1" xmlns="http://www.w3.org/2000/svg" xmlns:xlink="http://www.w3.org/1999/xlink" xml:space="preserve" xmlns:serif="http://www.serif.com/">
    <g fill="#00fff6">
        <path d="M16,0C24.837,0 32,7.163 32,16C32,24.837 24.837,32 16,32C7.163,32 0,24.837 0,16C0,7.163 7.163,0 16,0ZM16,4C9.373,4 4,9.373 4,16C4,22.627 9.373,28 16,28C22.627,28 28,22.627 28,16C28,9.373 22.627,4 16,4Z"/>
        <path d="M16,6C21.523,6 26,10.477 26,16C26,21.523 21.523,26 16,26C10.477,26 6,21.523 6,16C6,10.477 10.477,6 16,6ZM16,10C12.686,10 10,12.686 10,16C10,19.314 12.686,22 16,22C19.314,22 22,19.314 22,16C22,12.686 19.314,10 16,10Z"/>
        <circle cx="16" cy="16" r="4"/>
    </g>
</svg> 